<svg width="1024" height="1024" viewBox="0 0 1024 1024" xmlns="http://www.w3.org/2000/svg">
  <!-- Black background -->
  <rect width="1024" height="1024" fill="#000000"/>
  
  <!-- Gold RM monogram -->
  <g fill="#FFD700" transform="translate(512, 512) scale(0.7)">
    <!-- R -->
    <path d="M-250 -200 L-250 200 L-150 200 L-150 0 L-50 0 L50 200 L150 200 L50 0 C100 0 150 -50 150 -100 C150 -150 100 -200 50 -200 Z M-150 -100 L50 -100 C50 -100 50 -100 50 -100 L-150 -100 Z"/>
    
    <!-- M -->
    <path d="M200 -200 L200 200 L300 200 L300 -100 L350 0 L400 -100 L400 200 L500 200 L500 -200 L400 -200 L350 -50 L300 -200 Z"/>
  </g>
  
  <!-- Gold border -->
  <rect x="20" y="20" width="984" height="984" stroke="#FFD700" stroke-width="10" fill="none"/>
</svg>